<?xml version="1.0" encoding="utf-8"?>
<!-- Generator: Adobe Illustrator 26.0.1, SVG Export Plug-In . SVG Version: 6.00 Build 0)  -->
<svg version="1.1" id="Layer_1" xmlns="http://www.w3.org/2000/svg" xmlns:xlink="http://www.w3.org/1999/xlink" x="0px" y="0px"
	 viewBox="0 0 23.2 23.7" style="enable-background:new 0 0 23.2 23.7;" xml:space="preserve">
<style type="text/css">
	.st0{fill:#2B2B2B;}
</style>
<g>
	<g>
		<path class="st0" d="M11.6,0C7,0,3.2,3.8,3.2,8.5v1.7v6.7c0,0.7,0.6,1.4,1.4,1.4h1c0.7,0,1.4-0.6,1.4-1.4v-6.7
			c0-0.7-0.6-1.4-1.4-1.4H4.7V8.5c0-3.8,3.1-6.9,6.9-6.9c3.8,0,6.9,3.1,6.9,6.9v0.4h-0.9c-0.7,0-1.4,0.6-1.4,1.4v6.7
			c0,0.7,0.6,1.4,1.4,1.4h0.7c-0.5,1.8-1.9,3.3-3.8,3.8v-0.3c0-0.7-0.6-1.4-1.4-1.4H10c-0.7,0-1.4,0.6-1.4,1.4v0.7
			c0,0.7,0.6,1.4,1.4,1.4h3.2c3.8,0,6.8-3.1,6.8-6.8v-6.7V8.5C20.1,3.8,16.3,0,11.6,0z"/>
	</g>
	<g>
		<path class="st0" d="M21.9,10h-0.8v7h0.8c0.7,0,1.4-0.6,1.4-1.4v-4.3C23.2,10.7,22.6,10,21.9,10z"/>
	</g>
	<g>
		<path class="st0" d="M0,11.4v4.3C0,16.4,0.6,17,1.4,17h0.8v-7H1.4C0.6,10,0,10.7,0,11.4z"/>
	</g>
</g>
</svg>
